# xmcd CD database file
#
# Track frame offsets:
#	150
#	21312
#	44225
#	65415
#
# Disc length: 1174 seconds
#
# Revision: 1
# Processed by: cddbd v1.5.1PL0 Copyright (c) Steve Scherf et al.
# Submitted via: CDex 1.51
#
DISCID=37049404
DTITLE=Lindberg - 水着とBeachとBoys
DYEAR=1995
DGENRE=JPop
TTITLE0=水着とBeachとBoys
TTITLE1=Ring My Bell
TTITLE2=水着とBeachとBoys(カラオケ)
TTITLE3=Ring My Bell(カラオケ)
EXTD=YEAR: 1995
EXTT0=
EXTT1=
EXTT2=
EXTT3=
PLAYORDER=
